<mxfile host="app.diagrams.net" modified="2022-01-05T06:22:00.427Z" agent="5.0 (Windows NT 10.0; Win64; x64) AppleWebKit/537.36 (KHTML, like Gecko) Chrome/96.0.4664.110 Safari/537.36" etag="nXlHBayTyU-_fBEF87IE" version="16.2.1" type="github">
  <diagram id="DP02FnzoLQq1lAjmjpGf" name="第 1 页">
    <mxGraphModel dx="1438" dy="547" grid="0" gridSize="10" guides="1" tooltips="1" connect="1" arrows="1" fold="1" page="0" pageScale="1" pageWidth="827" pageHeight="1169" math="0" shadow="0">
      <root>
        <mxCell id="0" />
        <mxCell id="1" parent="0" />
        <mxCell id="Fk6R5V9EhwgDbMLE1rvt-1" value="&quot;original_width&quot;: 170,&#xa;            &quot;rotate&quot;: 0,&#xa;            &quot;level&quot;: &quot;center&quot;,&#xa;            &quot;verticalMargin&quot;: -157,&#xa;            &quot;vertical&quot;: &quot;middle&quot;,&#xa;            &quot;showtype&quot;: &quot;logo&quot;,&#xa;            &quot;type&quot;: &quot;image&quot;,&#xa;            &quot;rate_x&quot;: 0,&#xa;            &quot;content&quot;: &quot;/page/resource/userfile/image/logo.png&quot;,&#xa;            &quot;rate_y&quot;: 0,&#xa;            &quot;isLock&quot;: true,&#xa;            &quot;x&quot;: 0,&#xa;            &quot;width&quot;: 170,&#xa;            &quot;isAbsolute&quot;: 0,&#xa;            &quot;y&quot;: 0,&#xa;            &quot;original_height&quot;: 130,&#xa;            &quot;levelMargin&quot;: 0,&#xa;            &quot;opacity&quot;: 100,&#xa;            &quot;height&quot;: 130" style="text;whiteSpace=wrap;html=1;" vertex="1" parent="1">
          <mxGeometry x="-44.00001220703126" y="196" width="334" height="280" as="geometry" />
        </mxCell>
        <mxCell id="Fk6R5V9EhwgDbMLE1rvt-2" value="" style="shape=image;imageAspect=0;aspect=fixed;verticalLabelPosition=bottom;verticalAlign=top;image=data:image/jpeg,/9j/4AAQSkZJRgABAQEASABIAAD/2wBDAAYEBQYFBAYGBQYHBwYIChAKCgkJChQODwwQFxQYGBcUFhYaHSUfGhsjHBYWICwgIyYnKSopGR8tMC0oMCUoKSj/2wBDAQcHBwoIChMKChMoGhYaKCgoKCgoKCgoKCgoKCgoKCgoKCgoKCgoKCgoKCgoKCgoKCgoKCgoKCgoKCgoKCgoKCj/wgARCAGQAZADASIAAhEBAxEB/8QAHAABAAIDAQEBAAAAAAAAAAAAAAUHAwQGAQII/8QAGAEBAQEBAQAAAAAAAAAAAAAAAAIBAwT/2gAMAwEAAhADEAAAAeXHLuAAAAAAAAAAAAAAAAAAAAAAAAAAAAAAAAAAAAAAAAAAAAAAAAAAAAAAAAAAAAAAAAAAAAAAAAAAAAAAAAAAAAAAAAAAAAAAAAAAAAAAAAAAAAAASm3uQD6+c0AAAAAAAAAAAAAAAAAAAAABYcTZtc2DY195ctWlzVHl6/k/vOvJO1yM4Z3GI4x00Xmxrz3NAAAAPPD6AAAAAAAAAAAJTVrSMJ8158uvNZiIlfoAAAAa/O9UbV/MXvgyqMWHxmXHHuU6GPuTY0PJX4rlU8BcNQz0xjOgAAAAAAAAm9yK77p5Cufx9iAAAAAAAAHz9Djq+vKOyuZ7eEm9weMj6xs2ss2DE9wAAAAAAB3W5gsX7VyBIAAAAAAAAAAADFl02Yagsmq8v0T2AAAAAAPZbcmLL+MlcgSAAquw/wA76sW1KCv0DAAAAAAAAGLRkNBNb8/3PCz3DLAAAAAAyXJzfbVy9GwAAeQxt8b1Ei3mJj55/XR7PGbh2iFmswABhzVOdb1X5Z/ROp4YAAau18sjqxs+LZVQj1AAAAAJiHt7Ym/orkAA0vNc15rIFa2VTxXXx75WgezUILosH8sXPiwBmKUuuLPzl+hdTZ1PDAAAGlh3tFFaQdkVtPoDLAAAHp1VoRUrfAGAMOaDE363QzGHMKsrv9L49flvz9DwraSXJtlLXX0UswMAfH16AAAAEdIaicNQW9wuVyIn0AAAOs5K5aiXG8gAMcb7Jn0AAAAAAAAAAAAABgz/ACR0JN+IpgR6wAHvg6C2uY6i+IJAAh5iJlgAAAAAAAAAAAAAB74NDHsa6KXEes98AG5p95s996VxAAAipWJlgAAAAAAAAAAAAAADX1N/QRS4j1gALrrO3K5BsAAARMtq/JuAAAAAAAAAAAAAAA8jZPQTSYj1APfMurH6/FlrgDAAAETLfB9gAAAAAAAAAAAAAAae5qso4R6QHWcnamz04riAAAAAAAi5QQ3zNiPkNbZAAAAAAAAAAGHNjKIEegema8K0s+uQbAAAAAAAAAAAAAAAAAAAAD5+hQgj0HvSs6zqYaZvgAAAAAA0d4aW7o4SUaG+ADCZkTuG0AAAAAAAAB756UGI9C1OCtXPPoT0Pt1G6KsAAAAABgziHy78cfX1i+jQ+Z7OY8vgAAAAAAAAAAoQ2I9Hd9Tj+58LU29Ummpt9ewAAAAAAAAAAAAAAAAAAAAFCSEfsR3uNpbs+EMzTnIrJ06yIqwAAAAAAAAAAAAAAAAAAAKEsLiLszpE7eNPm+xEe63me+kkL6AAAAAAAAAAAAAAAAAAAAf/xAAvEAABAwEHAwMDBAMAAAAAAAADAQIEBQAGERMgMEAQEhQhMVAiIzIWJDVBJTSA/9oACAEBAAEFAv8AtiPAlSUdR5zUVFa741bUmkIxLFT0rENsmMnqnxl3oecboX8XPaOzQvKVlHnPs2gSlsl3iW/TrrLd11nXeNZ9CmtsWBLDbFMdnFLdyLyYAEjRLPnC78uZIsKABjtkoRlQ9DiEtKocgdiMeF+ml0x82wIMaOkmKErKtA8Tj0wWdUFm5i+G81hsaNm8UbCtl0ET7TIR4a9KdF8yY1qNbZyYoUbTCIxRF4ghEOSn0Vo7NRGpwlTFJ1EEW0gBYxLsBwB1/utt7apw6dTizliRRRB8aXGFLDTIzogev91t2NU4PtalUfNsiIict64NS0smdM4NEpeKc0i4rVJHiwkTBOBQ6bnu2Lw1so5N3a0c0rhvdglq3Jz5XApcJZ0hqI1NYHufInK5Zl2guLV+GqYovotZp/em+NjilgxWQ4+wMSsk1SnU2RKp42wx5stUzJeACEfsEI0TGV6A82wVOlWieLK3ruwuwWwstSr4aksIQxJLqUSIr7zQG2/VMOzLyU9bR6nDka75S177UN6vpOtelSjeVDT23KTE8yYms52AYgCS1REalr0VUkd6riuiJU5cS1KvEOQui+A1SpiG4pE/x1M2CJ62rUfInba2pMTw4mqUdscQAuUnW98J7ZOu6c58mN1nQwzQwaTDp7v90+wRMW2rYM6Dt3eiZ8nUR7RsiMcYmgjGvZU7s4rJhnjO0Nar3XYppIQNDkRybSpgtpIfHlbPqq02KkSHqkfuZWtzUch6NANYl2ITrfpWNYd2ILVi0+LF4JU9bXiDgXZu7FzZWp6o1lOb+35pU+m1aFm03YW1LjeJC1VL1ipzl9rKmKbFCj+RP1zPqkc9/o7ZoEbIgaz/AMjzy++xCB5M3YN/Ic8vtsXZj7MtMJXPf+OxBAkWJsVH6Q/Af3qoQM+o7MkeaCITOjc9/wCWq7cfLh7Uf7Ujnl99IxqYomIMe1gmPPNqu2DMmcEr5Dn+Mdbdk0No0lpuOX8dN3w5NN4ijapOM/8AHQEanM1Ea34tfbRdsPfO+Ru8HLgb0hC4AO0yfAUGPmyad9LN80dpV7zisyUF66CEaNqyHksFjmJx6TH8aGv2ZvAI5WtU8YtkiD7cgqJlGwK8LFGiPI3HDj0oHkTrSB5wYhc4HAexHosCPbwQ2SDHSwxDHyqADsjdArkzPjQCU5htQY+kgakHHMhxfGQD+PL906j+xL+MjhdIPExaPqViEHEKr0+Lu1F7RF+3O0Q297viokdZcprUaye1Vjtcjm9JPcoIsgRU+K//xAAiEQABBAEEAgMAAAAAAAAAAAABAAIRQDADECAhEjFBUWD/2gAIAQMBAT8B/XyLDnIrTP2vILyC8gpHKchwSg8oOGznIpjpxEwi7GHI7afvCTCJnMVpDATCJnOUz1gcaBTDB5uNIrTPXImaRWme+LzUHXFxk1Dwceqp4PNV25Rqnd56svPdgmApmxrO+Ew1ynGSmnuufSOzDWeU/Zlb/8QAHBEAAgIDAQEAAAAAAAAAAAAAAUAQEQACUCBw/9oACAECAQE/Afg4msrKcrKgCCtUlksngBMsnyGQwGR0QyOlqyC1qVgM2jVb/8QAQRAAAQICBAkJBwMCBwAAAAAAAQIDABEEEiExICIwMkBBUWFxEBMjQlBScoGRM2KhscHR4RQ0U0NjgIKDkpOjwv/aAAgBAQAGPwL/ABsTZZNXvKsEZjZ3JXbBSoFKheD2eHqUmbl4RqT+eUqA6ZAmk/SJ9m/qF5jZxfFgTcUlI2kyhSaM2twVjKqmyPZBHiWIFZ1kepi2lJHBv8x+7/6/zFlL9W4xaSjzRGKWV8FSjpKO5xTjfKJGw78lfFhGkWXw0z3R8eSoyFPubGhOXE3R0i00ZGxGMr1isU84533DWOS6VCV+ITjowpk+4fpE2Cl4bM0xUeQptWxWFzi8Sj7dauEdEygb5TMScaQocIDjUywTLw6OylWbOt6RVoSOfPenJA8/tE6a6XP7aMVH5gJbSEpGoDL1XEpUNhEVqKstHu3pg8+jF74tTyoaOZnL4QAkSA1cqm15ihIwtpWcg1ToobZQVr2COcpZ5xfdGaIkBIaIV0boXNnVMVH01VfAw69rUqr5DBc95KTola1DPf8AtFRhMh8To5beTWT8oLJkpIVNKtuC57qUjQrYD1LBqam9vGJC7Tn3NSlmXDQk0mlJ3obPzOnSha+scVPEwBoIpLw6IZie9vyKqNRFVKucvXOE0alKr1s1Rvno3Np9mzZxVoNU+yTas/SAEiQGQpAOahQSPSHyvOrmfrDJFyMY6MaSwMfrp279AS22JrWZCEtN+Z2nIurGa5Iy3wVuPlDxvS3aT5QUUOgv23rXJM4soyB4nfxH7Zs8HfxB51ktcVA5ArcUEoF5Mc2Hj4imzIz5CUjonLU7t2X/AFTgx1jFGxORq0NHO6is2IHnr8onSnlu+6MVPpEmkJR4RKJPvoSrZeYsDyuCY9m/6CLVOJ4piTVJbJ2Tlht0VJxZV1b+SiqUZmpkloGeLUcctUUOiRjL+2QrOHcALydkVqZit6mB/wCtvCJASHIKLRlVVSmtQv4Rbg9C+oDum0QG6WA053uqcFK5YqkCRhKGxNSjICEJSKxbSE8TkyQMR3HHHXlLoCFe0VjLO/DrGZNyUi9R2Rz9Ite1DUgbB98AUtNraxI7jkFsukksykd2Bzb6Kw+IguIBrd9ZuhBT+2bNaffV9smVATW1jj65Tn15jV3iw1LWZJSJkx+qeEifZp7ifucEpWApJvBgroCv9NX0MSfaWjiMEJSCSdQhbj9jjssXYMGRExkzyOs6kqs4askAkTUbAIba1jOO/DTR/wCmjHc+gyElAEbDGNRkA7U2RiqeT5x7d74RNReXxVHQMIQduvQ2n9ShUPHJKfVmtWDxYZUq4WxzqhjvHnD5/jsB2WcjHHlkbBM7IbaOderjhqR/IQj1PYMjdkQTmNY546shQ0f3K3oD2AcklShJbuOfpkKL4Vn5dgDIss6lG3hryNG8K/p2S7SCPcT9cjQ1++U+qT2AchZfqhpkdUfHIpX3HEq+PZCZ5rWOfpknG+8CIbXrIt7AOGXjnPGflqybrJuJ5xHDX8fn2MhpN61VYShOakSyYMrR2Mp03NCzidCqMNhI1uLu8hGPTHf8qUiMVxNIHdWKp9RBFqXE5yFXjTUEjGcx9FS5LHTr0c4KGk3rMoCRcO0VO6m0/E9pBZvdNbLgskVhqPW3QZWKF6TeOwS4oYrfzhbH8Sqvlq0AKtS4LlJvEScRzqe+i/0iQcAV3TYcGa1BI3mJUZoq99VifzGOsrUdekJSc5WMqEOdVzozx1aDNKCs7BFR+qlXddEo6IrbHuKiSaU55pSY/cq/2iJPU9c+6FAfKK1Gotv8r/5tgTtOkNg5qcY8ikXHUd8JWbFaxv0GSgCN8TDdQ+4Sn5Re9/yq+8ezreIlUdGhKfCJaUXje5dw5VI6juMPFr7OS2m9RlCUJzUiQ5cTPBrJO+ErTr1bOzUOG4X4P9t74K/PZqGUXrMuG+OZUZqaxZ/LAKTBQ57VFivv2YqlKvcsR4YSdTqZeYwV0g9exPh7LaYHWNvDXASkSAugqTnNmuPKApNxt5VhvOlFVvFKeobCOy//xAArEAEAAQIDBgcBAQEBAAAAAAABEQAhMUFRYXGBkaGxECAwQFDB8NHh8YD/2gAIAQEAAT8h/wDa+BOFDZjm8qcamS3P7CKaWcDhPjlBQbnur7R1oVMGrj/AxTPcaQAwcPjZI5jDXVw70eHeorZWh1olXkMwm18KWwT+kTQG08WO1LnnhRkIrQO0/wBoJf70+66wgupWVLQhRKRsLHrUnooYg3tCrrc+4vk2N9CzLF1zPPwlCTGI6BxaXTk4znrHAqTfWXWw4UEEGGnowYbQe6ppU52ua1Serh/xa2cJIndr5oyWSw/4jbRyU1yOLeppbkip55ElleXDb7csHJt131U0mWEf0fNXWuA5X4msPJkIPWila3jKKmtR1zhicKkx098y40M4PhcdYwaf7hRfBQCweEiUa8qLfT+ytNYz9qwJ8De5UuB1dP6caEmCwBB7MEEk0aLiSzDG3ZcKZaVz3DnQJGGP4zXyfeiUZryT69nlR0A8WY7Ne/CjpcdczVc/bygi45rU0aX1NmA3uZPjlX2qLT/FX79koJUUwKY8/a2NnOjQgMAy95MVjL51D7Ms2LHb2LYVtFYxeCYfjD799bWWNQvhx8I/tARkR7DCrhyymacWzv6OTmSvsDSokssYACYtj7S9+Ec0o9w8MOfsbhxwWZlvPajaCgDI9BRiAOBe9YhG+yZUbt9fQD/ntCgaCg1hMrhl0bTrWJ69ven9uyiIwvnNi+hlTKCTZgkdg5VjxFptsBaflMRbnZ6UXJdP4Kk7vw86F2NhcOXoFeWVQFRyFYED41MlvQyXGjGrSU22Z+sWBvVzRfXM3voLBM0ulBoiOdRdNjxWoebQeytgEPYK6JKd2vzH3UDxV+ppI1GScmpt5pPAbym33U03JQS7LegZEpIYasOL1of0caVmTpp6sVgDQTLi7DQggw089pwWAnJAzaghqm3F/hvoyIMAIPCcBzKwcBpSMpVzfK0RXM6DT3CwD8HlbC2EKTP1T9DCZrRsJWTGEd30Yp6+FiYdxkffH1FEQlmAMWrNG0Ojhh52Bqc4OAo3DhHiupr9PICCA4YVr7/rzjV6YzzeXCPJi1MiMJqNO3EzUdmRUwZssbZUbGM5sejKbPCepHAMHKhHC/p2SF7Nf8HejzE0cRgBRqOofMz73LygvOASNQmGc/4486bR1xsPHDytTaAJWgZeGKet/LCE2IklBBb0olQDZJHEr/Yk36PSCQoNQtgoEwlIZvF8zRdCtvfvku7bRh5273iElS8w1e2huQl7la/5bq3AYAdCr3sjnmb+xgLr4QQYh2LnSfS32dzR9HfzqpAKdhS4EwXEyHCBw99JLTwtbMHedJ9GUXMAGbpWIwku3d86RGEPhH9oQQe+MoqMqJglEJ6MTlP6Du8KPPGBmX+rWPgB6Kwu1NIq7pk5R6Fwadk+/gDe8uXkSI6Cb/xxoIIj0FF/E/gItdvly8cq32TbC/VBw9G4mCvw0+AEhs9BFIMuw1cqvkRi65nn6LI/tUR6L8A4U2R5xfeEW3Dqvw9Le5vCpzwbvZ/ACPPAQjGNNv64+mmwnb1g4fABguzzS2RA6TnQYwAmw9NZAcBo9+LD5oNT+q3Tzow9i9FNTwF3pReStk9msRp9cOx0qDi2Cj964e9bZiq3OHSPavy0QOMOW72/QeUzrXhcek0IMBAbPjBKPLOZgz8aDz+PPDdeo8QxbsDoeuiTmXDHZvq9OxtX0T4E5uGeLCkTl2Gs79D09hNDHdH9NzRCEBo8X8tZek+mb+Xbb+CsXFkxffBSnHxVjgZHuIExzxyp5MPdPuexbgGlLzqOlGWXXHhQYMNcOWFc9NjtWcPd/OmiQzJyM1wZUkbi70oCaZiEHuBB9rP9pxavhJfQFx51ByS2kLJz9jsL0JKSsszQ7KtJaaxlz+RegYH0Ds9zlUeb3I/3x0FeGwcSHn8cE9AMscAeN/gMrIfoq1UYlisz40i17kbNCAmeevkWZc5P8dvjbGd4cmfAViQU1imblHklfvgmI5JUPOEGeg2PxkfemDPi/VYAx3nnSeVa+PGsfWD0GHO7xo+KkLi90OL640WgQAyKwg59DlNMhJw3eIKJUAmN/SpCIoR5P4v/2gAMAwEAAgADAAAAEP8A/wD/AP8A/wD/AP8A/wD/AP8A/wD/AP8A/wD/AP8A/wD/AP8A/wD/AP8A/wD/AP8A/wD/AP8A/wD/AP8A/wD/AP8A/wD/AP8A/wD/AP8A/wD/AP8A/wD/AP8A/wD/AP8A/wD/AP8A/wD/AP8A/wD/AP8A/wD/AP8A/wD/AP8A/wD/AP8A/wD/AP8A/wD/AP8A/wD/AP8A/wD/AP8A/wD/AP8A/wD03/8A/wD/AP8A/wD/AP8A/wD/AP8A/wD/AP8A/wDf/wDcn80w583/AP8A/wD4/wD/AP8A/wD/AP8A/wD/APwM/wDPPPPena3Gt6//AP8A/wD/AP8A/wD5Yf8A/wD/AP8A/wD/APP3OvK//wD/AP8A/wD/AOgb/wD/AP8A/wD/AP8A/wD/AL3+zP8A/wD/AP8A/wD9U/8A+7df/wD/AP8A/wD/AP8A6h//AP8A/wD/APt7/wD/AI0uAO//AO/X/wD/AK9d/wD/AP8A/wCf/wD/AO3/APTxyT//AJ3/AP79zv8A/wD/APif/wDfT/8Ata+p/wD3/wD/AP8Ay6v/AP8A/wD3/wD/AP8A/wD/AP8A/wD/AP8A/wD/AP8A/wD57/8A/wD/AD//APj/AP8A/wD/AP8A/wD/AP8A/wD/AP61v/8A/wBX/wD/ANP/AP8A/wD/AP8A/wD/AP8A/wD/APvT/wD/AOP/AP8A/wCP/wD/AP8A/wD/AP8A/wD/AP8A/wD/AO//AOjb/wD/APy9/wD/AP8A/wD/AP8A/wD/AP8A/wD+f/8A+f8A/wD/AP8A/wD++vf/AP8A/wD/AP8A/wD/APG7/S//AP8A/wD/AP8A/wD/AP8A/wD/AP8A/wD/AP8A/wDu/wDnf/8A/wD/AP2w+88w/wD/AP8A/wD/AP8A/wCv+Yf/AP8A/wD/AP8A+xw4z/8A/wD/AP8A/wD/AP8A/qWpX/8A/wD/AP8A/wD/AP8A/wD/AP8A/wD/AP8A/wD/APtz8vf/AP8A/wD/AP8A/wD/AP8A/wD/AP8A/wD/AP8A/wCsTMR//wD/AP8A/wD/AP8A/wD/AP8A/wD/AP8A/wD/AO//xAAgEQACAQQDAAMAAAAAAAAAAAABEQAhMDFAECBBUWBh/9oACAEDAQE/EPt/7QEHGu4oTCecH5eaBvZQ46pcJB2AQxAMwrjyEaY5tACsOaC2cUhMu2rQlRvEhMhsIMwhM33hjGw800AYhe8sLSFRvU1HHpViKTqgLTIhM+tQ1AR6I1Q16VFqhzQHCddXHlCaxxyxNgZiZ6bHhjgjrkgzHxiNcrOCjw0LW8RARfAjOt//xAAgEQEAAgEFAQADAAAAAAAAAAABABFAECAhMDFBUGBh/9oACAECAQE/EP2+nIH10SWlpaImEe7b2Ijo+mg+9Rb5A62ArTx0hcOMdVwK1IR6x0Buq5UrUIm18juF7jYmg1F3DcGzzUZcuL3Bf5EOckcZBP5kDnJ8XknnVXcx2V1HcvMqbx6uPunBWN9oKb0GN//EACoQAQABAwMDBQEBAAMBAQAAAAERACExQVFhcYGRECAwQKGxUMHh8IDx/9oACAEBAAE/EP8A7XURIDVpojQHWyDkGozNKA9gA+alLQK/kf8A8f8AHfeJKLpET+VDj2znIH/QYzehDRagW7UP6EyyJXcBjZhKdWyPR9x+PF9PcRXOYkiv2U7uKJFOaUdYo6QuiE3ugoOBNwHK2yIvMVIHVAI6k1PCLiI3FpflWZWksus0YFq0qJjjCou+zeyTtXSF4/lug1g8Hg0P7UwwZKA+8nyV0kOfFBrmPNdPeoEqBzTpetgp+J7C1nF/p9PYkIuLHdWDzFIqTC2S/eTSxRlCxOTaU7I8VFxW4A1k/Oda/wCm6EszoBRmACwCCoqKioqOaioqKgP+AB4NEbOR/Z4BUNtxZHeU7lRRaYW4arA5FqLXs+zWgkzmw292wk86b0QFzB6qZeawAsnQ6IhI8iVZBoTG2LleBYYHP1JvG/rNRC24W/iR5qARKeTWWJDYLpREKOsPsi7zHBRhSg7pgt8seizVIJuzTrDZlXbSfK7VEnKElOsJ7RQQZBuO/o6gFBQkEk6KTuXSiS6NghABoB6Fv5U1Sy2sk5MnJVgY+RJQdxD3+npHpfxTBY74RyoVHpFt4Q4dujhoTFwYDYDB9JuUWZCEJE2SpqCok8rf3hGzTQiJRId8Y3i5qFZvxRcAscPgUZ9NKP8Ax1oYb9bSf5+msJ2reANfEcuVnOKGgGXfukutZ+tPkABguFyG/mpRqLhvRQDa1mBtin0bJoZnv/yoj5dmZP0rgAMqxSVnDiBya5szfChaqAoAYAMH2Iot6zPVIO9CTsmE0cmAmkkt8QHv9FCAFyuIpIkt7Bk6uRYsuwI+7EJb9qKKsia/gBK6VgJLtPoSXNT1QCWHA2pY1E4CSfeJQuiyJTJmsDC5naKQcEQESMIIN28x9SbGWx1pm7lq0oQjIn8lnLRz66fLmcwRJheC+12pQ2MHwAQAaB73NPBEsvM0vL+amUkda4FNmsHs4E9VHetPpusTWRoYp7ZcbhyG1nZyUICIjcTX50uEQrS52ASrsVNMJM5J6vgA0+BypTsgm4rtD3tGTiroFpEF1QvTewlI9FThsQjapxs01JUrte/E/aaXMHZc39+B6EDATVWjshWsmIkW6oFABUmZPgvBcUcGcTUkS4Zab825wxp8xKQBdWltGWq4SHDPSDejHvJEALqtooTy6CgzhKNg8pUkkd1HRnkVJR/kQ9YFNCsuz3Zk70ZHSA/Chks2rjph30dZUbkcS/wrQEJhw+6P7IFhEF4IXVNqk2pAEBZbkfgfALmEikfIKViyTeg7JKpJIOBWUWR5ETt8t+KQwynzoaAGIEABAHvnYEUMYK6aB/BaNSO8ijRNu4W66qM9YDAGACweix+Swg1JdcwkU0wpUlXdfZNSAQPg948RRcRPsrgVu+snJQyT7A7TELiAPE2c0S05JUQFQEundEYefgIq1i39+kQSkGMHmjuVHxoJHBco2AN1ozjWQlaHKCB0594ULhjgC5XwArYathxumU3F1HBECrGPXHTZw4dAiHdG1ImfduVeDI8sgG6qQOybeyJQOjlLD+OtPMIodxKCxlzzRLAVaBTbcquhYSErp8FoZuPRIqJmUE7jXsUBMBvv8cldDpvlno09RtVnuxs4MaVexTJkh7iyNAhWQjQyAY9i5QFBuRHNRpK4E6J/KGxsErtG7s0m3sMA5QhwAXWszknNoHkpTS2s+1vbQMnUaKCwLR8O5XBLUgKcJhIueKc6RRP/AMEg7fE/48td5ClIl1FE8zBwHuwqBam4bO5+sFsTHwADAQAhyNqRVzGV/YVcE8aUGujaDQOAP+YIH9pUFCI2/e/VGfoQDizuekU0kxuq9w7fD1oATYASZLveeNAHu4dnkEr4KPJbSQT9CL7yRGb6MUobCJmXI7wfCjfJM4zAOVQ71bRCjX8UWDgPfZDqmMjfo0AwALAEQfeBjUaYKslDOaZhEhPHw9H4Szh+52NCPfNkinA6fKhn7zUYxNzv8MgUgLrsUymfUCITaJo3Wj3gi17Tb/mUZ+85qLeW9p7BjTLZyTwd1CEACwG3wNjDrjfH4vb77mp9h/XtPUoJdKKBlZY2EOq7mg+AEoADew/TRn78CUH33rKbyYHdQpxiG3W7yX4UDLsEhpGv3zMGjwSnvJglsSJs+TSZ+ELfIi0VA9mK0TPbRgdkT77io7o38+4FSKWhI4Q3SOG/xDrSsmhCVtcovQff0rkT+PdEoFBLND2EvagvFFoEH8+OcpEhcnMPNYfec10nJ7kywrS6Hg+D6RaUStBjCjqqOtaG/QrwLeVpsJWVJOFN6nqUHG/Ko4kwjoFWj9ZxQl8J6L6qGaW70POh8fL6iTRysRmobqrMNpBz9ZxRk+Xpb1cxB40S7sF2ovB5sAIDwf5nMA+mr6o9X9usHigP87J9IVCSbAErR3V1ZDb/AE7/ADOatmlrmpy9hhiRFpGn4d/4hCSORaLnvc1P1D2WKnBwzA7Evip0WQXcf4fOiolBSNjk2HAnFPEsGBHdPNzpTEJZLC7Mf4pYJaGcVNTzSw00x/aQAKicbcnxCHcqcyIUO2DtwXd1+oeusFKk2U5MHYQeaC1Sq2sVX/u5U2+hCYi6A4kH7T0DJ8dlvcSoIUYbn1JP4qHsmIS5YzU0InU/9VXMHMG7QfGiyUY4GZngPNFRkCUHVCWDiafrzFJB0VIHrA705Z1aEGLN1DsgU9zRvs9kH6EUkT8n8TR+Mn9aU2kElSC2iFUes2acrWZJ4FTx9i40zSbtMXLZ5k9inf0ZK0l0BAuh1Chn/NYYmnsOXsS0NYgtgQfz1iFhwJch0brhaItDsCwvIidv82RdFISxWOQZ7U54gEGA4fWf2pcslRgBfweedDOv+YMuHUhkt0F6xvQSrSwYK9X3D7IsgSVAmUbiCclOIULIHQbF+GTSjP8AlYimvMROo/inoUKfdb2JPMz7A6O9TDVFRE98l4VYf5V4gE+dwWs5FGGWqAiAOhQ4yB7ql7oO9A9JXdEn41NTU+jgBIpYtpuidYqPQUfgQCtI1JOf8rrX/9k=;" vertex="1" parent="1">
          <mxGeometry x="304" y="171" width="164" height="164" as="geometry" />
        </mxCell>
      </root>
    </mxGraphModel>
  </diagram>
</mxfile>
